<svg xmlns="http://www.w3.org/2000/svg" viewBox="0 0 32 32">
  <rect width="32" height="32" rx="9" fill="#07141c"/>
  <ellipse cx="16" cy="29.2" rx="6" ry="1.2" fill="#3dffc0" opacity=".35"/>
  <g transform="translate(0 -1)">
    <path d="M16 4.2v3" stroke="#c8ff3d" stroke-width="1.5" stroke-linecap="round"/>
    <circle cx="16" cy="3.6" r="1.5" fill="#ff4ecd"/>
    <rect x="8.2" y="16.2" width="4" height="8.5" rx="2" fill="#3dffc0" transform="rotate(-36 10.2 20.4)"/>
    <rect x="19.8" y="16.2" width="4" height="8.5" rx="2" fill="#3dffc0" transform="rotate(36 21.8 20.4)"/>
    <rect x="11" y="17.2" width="10" height="8.5" rx="3.5" fill="#3dffc0"/>
    <rect x="10.2" y="7.2" width="11.6" height="11" rx="4.2" fill="#e8fff6"/>
    <rect x="11.4" y="8.6" width="9.2" height="6.4" rx="3" fill="#07141c"/>
    <circle cx="14.2" cy="11.7" r="1.15" fill="#c8ff3d"/>
    <circle cx="17.8" cy="11.7" r="1.15" fill="#c8ff3d"/>
    <path d="M14.2 14.2c.6.8 3 .8 3.6 0" stroke="#3dffc0" stroke-width=".9" stroke-linecap="round"/>
    <rect x="11.6" y="24.4" width="3.4" height="4.4" rx="1.6" fill="#12b88e" transform="rotate(-16 13.3 26.6)"/>
    <rect x="17" y="24.4" width="3.4" height="4.4" rx="1.6" fill="#12b88e" transform="rotate(16 18.7 26.6)"/>
  </g>
</svg>
